<?xml version="1.0" encoding="UTF-8" standalone="no"?>
<!-- Uploaded to: SVG Repo, www.svgrepo.com, Generator: SVG Repo Mixer Tools -->

<svg
   width="380"
   height="440"
   viewBox="0 0 486.4 563.2"
   version="1.1"
   id="svg6"
   sodipodi:docname="logo-packagist.svg"
   inkscape:version="1.2.2 (b0a8486541, 2022-12-01)"
   xmlns:inkscape="http://www.inkscape.org/namespaces/inkscape"
   xmlns:sodipodi="http://sodipodi.sourceforge.net/DTD/sodipodi-0.dtd"
   xmlns="http://www.w3.org/2000/svg"
   xmlns:svg="http://www.w3.org/2000/svg">
  <defs
     id="defs10" />
  <sodipodi:namedview
     id="namedview8"
     pagecolor="#ffffff"
     bordercolor="#666666"
     borderopacity="1.0"
     inkscape:showpageshadow="2"
     inkscape:pageopacity="0.0"
     inkscape:pagecheckerboard="0"
     inkscape:deskcolor="#d1d1d1"
     showgrid="false"
     inkscape:zoom="1.18"
     inkscape:cx="57.627119"
     inkscape:cy="208.89831"
     inkscape:window-width="1920"
     inkscape:window-height="1052"
     inkscape:window-x="0"
     inkscape:window-y="0"
     inkscape:window-maximized="1"
     inkscape:current-layer="svg6" />
  <path
     d="m 271.07111,556.60123 c -2.25,-1.22 -7.55,-1.42 -37.08,-1.42 h -28.93 l -0.39,-2 -2.2,-9.9 a 82,82 0 0 1 -1.61,-8.13 6.09,6.09 0 0 0 -0.87,-2.46 l -1.1,-2.16 -12.56,2 c -6.91,1.06 -13.73,2.3 -15.13,2.66 -2.3,0.69 -2.53,0.69 -2.36,0.09 0.87,-3.21 1,-4.62 0.64,-6.11 -0.36,-1.49 -0.39,-1.65 5.46,-14.81 6.34,-14.28 6.11,-13.64 5.44,-14.56 -0.41,-0.57 -1,-0.46 -7,1.61 -3.65,1.15 -6.75,2.14 -6.91,2.07 q 4.55,-8.51 9.51,-16.81 c 10.36,-17.75 13,-22.41 13,-23 a 75.82,75.82 0 0 0 -6.22,-7 c -3.44,-3.6 -7.14,-7.55 -8.2,-8.82 a 12.77,12.77 0 0 0 -2.57,-2.53 c -1.15,-0.39 -6.06,-5.3 -16.94,-16.85 q -5.89,-6.36 -12.05,-12.44 c -1.42,-1.15 -1.77,-1.7 -2.46,-4 a 149.52,149.52 0 0 0 -6.68,-16.39 l -2.2,-4.62 v -4.09 c 0,-6.22 -1.29,-12.44 -6.36,-30.56 l -1.24,-4.39 -2,-0.23 c -4.43,-0.39 -6.5,-2.82 -9.9,-11.57 q -2.41,-5.53 -5.3,-10.84 c -2.3,-4.39 -5.07,-9.83 -6.22,-12.21 l -1.999996,-4.25 -1.84,-0.23 a 16.49,16.49 0 0 0 -8.29,1.15 c -2.76,1.15 -7.92,1.45 -14.19,0.85 l -9.16,-0.87 -4.57,-0.46 -2.46,-4.39 c -3.7,-6.52 -3.7,-6.54 -5.46,-7.44 -2.07,-1.06 -3.7,-1.06 -13.13,0 l -7.46,0.8 -5.63,-0.8 c -14.81,-2.16 -18.3000003,-3.81 -18.3000003,-8.61 a 98.2,98.2 0 0 0 -2.34,-11.23 c -3,-12.12 -4.99999995,-25.85 -4.48,-30.58 0.78,-6.75 6.27,-22.87 14.6000003,-42.94 l 3.26,-7.83 0.53,-12.56 c 3.26,-75.17 4.09,-86.33 6.52,-90.719996 0.8,-1.42 10.75,-9.9 14.79,-12.67 7.69,-5.14 34.51,-18.37 64.339996,-31.66 l 8.82,-3.93 4.48,-0.28 4.43,-0.23 12,7.55 12,7.55 9.71,-4.59 15,-7.16 c 5.4,-2.48 5.42,-2.53 8.43,-5.81 4.22,-4.62 11.3,-13 13.59,-16.14 2.71,-3.7 9.07,-8.91 18.74,-15.43 3.38,-2.25 4.25,-2.66 13.06,-6.0600002 l 5.3,-2.07 h 11.27 c 10.36,0 11.53,0.07 15,0.85 8.22,1.79 15,4.4300002 15.75,6.1300002 0.51,1.15 1.61,1.84 4.29,2.76 3.21,1.1 7.14,3.86 28.1,19.81 11.23,8.56 10.84,8.4 35.34,16.51 l 6.84,2.3 4,4.84 c 4.62,5.53 8.22,9.28 9.28,9.62 1.61,0.51 11.14,-1.84 23.17,-5.72 6.11,-2 7,-2.14 8.06,-1.77 a 42.81,42.81 0 0 0 7.37,0.46 c 6.22,0.11 11.8,0.78 25.65,3.15 3.51,0.62 6.45,1.1 6.5,1.1 0.05,0 5.6,9.62 12.33,21.42 6.73,11.8 14,24.059996 16.19,27.369996 3.83,5.72 4,6.06 4.34,8.61 0.6,4.39 1.84,23.14 2.07,30.06 l 0.53,20.57 c 0.46,19.36 0.83,23.88 2.07,26.5 2.14,4.57 6.34,17.15 13.13,39.47 l 2.76,9.21 0.18,21.35 -3.21,16.72 -3.63,18.67 -0.37,1.91 -10.08,6.06 -10.13,6.08 -7.37,-0.37 c -4.11,-0.23 -7.69,-0.37 -8,-0.37 -0.69,0 -1.52,2.59 -3.1,9.44 -0.92,4 -1,4.09 -2.11,4.29 l -15.29,2.43 c -21.12,3.33 -23.81,4.16 -30.79,9.74 -6.06,4.84 -6.06,4.78 -12.77,38.6 q -1.86,9.88 -4.25,19.65 c -2.41,7.28 -21.61,39.22 -28.61,47.62 l -3.79,4.57 1.47,5.24 c 0.8,2.89 1.68,6.08 1.91,7.09 0.37,1.61 7.21,27.69 9.67,36.94 l 0.87,3.21 -4.62,-1.93 -7.53,-3.12 a 12.49,12.49 0 0 0 -3,-1.06 c -0.07,0.09 0.76,3.44 1.84,7.51 1.84,6.61 4.29,17.52 4.06,17.75 -0.07,0 -3.44,-0.18 -7.6,-0.51 q -4.37,-0.37 -8.75,-0.46 l -1.26,0.11 -4.16,15.2 c -2.3,8.33 -4.22,15.25 -4.29,15.31 -0.23,0.16 -12.31,-0.46 -23.08,-1.15 -12.4,-0.8 -16.07,-0.73 -19.2,0.39 -2.87,1 -5.53,1.15 -7,0.32 z m 44.93,-8 c 0,-0.6 0.53,-4.16 1.15,-7.92 0.62,-3.76 1.15,-7.74 1.15,-8.79 a 9.71,9.71 0 0 1 0.92,-4 10.59,10.59 0 0 0 0.76,-2.14 c 0,0 -8.45,-0.69 -18.67,-1.42 -14.63,-1.06 -19.75,-1.54 -24.18,-2.36 l -5.6,-1.06 -13.33,1.59 c -9.51,1.15 -13.5,1.79 -13.94,2.18 -0.44,0.39 -4.62,1 -16.35,2.16 -8.63,0.87 -16.46,1.72 -17.36,1.91 l -1.65,0.3 0.09,1.91 c 0.07,1.49 0.46,2.64 1.91,5.3 a 26.83,26.83 0 0 1 2.76,7.6 33.88,33.88 0 0 0 1.06,4.32 c 0.07,0.07 22.34,0.32 49.53,0.53 46.7,0.37 49.46,0.41 50.31,1 1.06,0.8 1.47,0.46 1.47,-1.15 z m -109.8,-27.11 c 20,-2.82 28.15,-3.86 36.09,-4.45 8.89,-0.64 20.6,-2 28.91,-3.28 1.31,-0.23 5.69,-0.46 9.74,-0.6 l 7.37,-0.23 8.66,2.23 8.7,2.25 15.66,0.92 c 8.66,0.53 15.77,0.92 15.84,0.83 q -0.7,-2.66 -1.61,-5.26 c -1,-2.8 -2.53,-7.65 -3.56,-10.75 l -1.77,-5.6 -5.3,-1.65 -5.3,-1.68 -3.58,1.52 -3.58,1.49 -40.78,1.31 -40.73,1.33 -2.76,-1.38 -2.71,-1.31 h -32.81 l -6.18,13.71 c -3.4,7.53 -6.22,13.82 -6.34,14 -0.18,0.37 -2.85,0.69 26,-3.38 z m 140.68,-23.79 c 0,-0.39 -9.9,-32.95 -10.19,-33.45 -0.16,-0.28 -1.15,0.55 -2.64,2.2 l -2.41,2.64 3.54,13 3.51,13 3.88,1.38 c 4.16,1.47 4.39,1.54 4.39,1.15 z m -155.85,-16.36 4.39,-8.15 -1.31,-1.91 c -0.73,-1.06 -1.45,-1.84 -1.56,-1.68 -0.11,0.16 -3.26,5.46 -7,11.82 -3.74,6.36 -6.82,11.73 -6.93,11.87 -0.11,0.14 1.65,-0.6 3.93,-1.72 l 4,-2.07 4.41,-8.17 z m 67.89,-1.65 c 2.43,-7 4.43,-12.9 4.43,-13.09 a 20.16,20.16 0 0 0 -4.55,-1.72 q -2.33,-0.69 -4.62,-1.52 a 13.09,13.09 0 0 1 1.45,-2.53 l 1.56,-2.39 9.3,-0.46 c 16.21,-0.76 25.58,-3.56 34.67,-10.36 3.44,-2.53 4.91,-2.94 6.8,-2 1.61,0.92 2.76,2.94 2.43,4.39 -0.23,1 -0.64,1.29 -5.53,4.52 -4.62,3 -20.11,9.83 -25.58,11.3 -3.12,0.8 -6.64,2.76 -7.42,4.16 -0.78,1.4 -3.65,21.12 -3,21.74 0.14,0.14 26.36,-0.92 30.54,-1.29 2.53,-0.18 2.69,-0.23 3.7,-1.54 0.55,-0.73 3,-3.51 5.46,-6.13 2.46,-2.62 6.91,-7.65 9.9,-11.2 2.99,-3.55 7.53,-8.75 10,-11.53 3.93,-4.34 6,-7.3 14.21,-19.68 20.16,-30.4 21.51,-33.09 23,-45.21 1,-8.61 1.54,-10.26 4.91,-16 3.37,-5.74 6.75,-22.16 4.89,-23.72 -1.65,-1.38 -3.51,-0.73 -9.8,3.44 -11.76,7.83 -23.86,19.31 -25.58,24.18 -0.78,2.18 -5.12,8.56 -6.54,9.6 l -11.92,8.47 c -13.36,9.51 -11.94,8 -19.49,20.18 l -2.53,4 -7.51,4 -7.53,3.93 -14.14,0.34 c -28.24,0.64 -29.57,0.51 -44.61,-4.75 l -9.9,-3.51 -7.9,-7 c -4.39,-3.86 -12.17,-10.79 -17.31,-15.43 l -9.34,-8.45 -3.26,-7.37 q -6,-13.09 -11.41,-26.4 c -1.93,-5.19 -2.07,-5.3 -6.31,-9.83 -7.83,-8.29 -12.15,-17.38 -17.38,-37 -1,-3.79 -1.79,-5.95 -2.3,-6.45 -0.51,-0.5 -0.64,-0.51 -0.53,-0.28 a 3.57,3.57 0 0 1 -0.28,1.88 c -3.6,10.13 -4.8,17.63 -5.72,35.8 -0.46,8.24 -0.46,8.06 2.2,22.57 5.17,28.15 6.8,34.44 9.39,35.93 a 53,53 0 0 1 6.68,6.57 c 7.83,8.63 10.29,11.14 13.87,14 6.54,5.3 16.88,16.3 20.69,22.07 a 45,45 0 0 0 3.1,4.06 c 3.44,3.74 10.61,13.78 20.64,28.91 l 7.21,10.91 3,-0.16 c 2.07,-0.14 7.55,0.28 17,1.24 7.71,0.8 14.58,1.47 15.27,1.49 h 1.29 l 4.39,-12.74 z m -52.26,10.45 a 24.27,24.27 0 0 0 -2.8,-4.62 c -1.72,-2.46 -3.21,-4.48 -3.44,-4.39 a 83.94,83.94 0 0 0 -4.16,8.59 c -0.23,0.71 7.83,1 10.4,0.41 z m 63.54,-63.34 c 1.06,-0.76 2.92,-1.26 8.63,-2.41 7.14,-1.38 8.61,-1.91 14.42,-4.84 a 7.23,7.23 0 0 0 2.11,-2.53 16.83,16.83 0 0 1 2.53,-3.17 2.88,2.88 0 0 0 1.26,-2.25 c 0,-1.79 5.21,-6.31 25,-21.72 a 20.89,20.89 0 0 0 5.63,-6.15 40.27,40.27 0 0 1 6,-7.09 c 2,-1.84 6.68,-6.52 10.54,-10.36 3.86,-3.84 9,-8.63 11.41,-10.61 q 2.88,-2.21 5.53,-4.68 c 0.69,-0.73 3.6,-2.43 7.69,-4.5 a 52.08,52.08 0 0 0 6.91,-3.86 c 0.41,-0.69 2.07,-1.38 11.66,-5 20.41,-7.6 34,-11.3 41.1,-11.3 1.84,0 2.2,-1.19 1.54,-5 -1.56,-9.07 -6.8,-12.67 -18.55,-12.67 h -4.16 l -1.45,-1.54 c -1.38,-1.49 -1.54,-2 -2.85,-7.46 -2.64,-11.14 -4.25,-12.21 -17,-11.85 -10,0.3 -12.67,1.38 -40.27,16.49 -13.82,7.6 -23.76,16.12 -35.43,30.54 a 22.64,22.64 0 0 1 -2.53,2.82 c -7.14,0 -7,-10.84 0.39,-21.79 l 2.43,-3.6 -1.93,-0.8 c -5.42,-2.46 -12.21,-2.82 -17,-0.92 -6.61,2.65 -23.43,12.05 -25.61,14.26 -2.18,2.21 -4.29,2.43 -4.29,0.16 0,-2.8 2.62,-6.54 6.64,-9.44 0.92,-0.73 2.53,-2 3.51,-2.92 a 37.4,37.4 0 0 1 10,-6 c 3.38,-1.38 3.26,-1.19 2.07,-3.44 -3.21,-5.85 -12.05,-12.54 -21,-15.82 -1.15,-0.46 -3.88,-1.61 -6,-2.57 -5.07,-2.34 -7.6,-2.85 -15.43,-3.12 -5.6,-0.23 -6.5,-0.32 -6.13,-0.76 1.7,-2.07 7.14,-3.05 18.14,-3.31 l 8.82,-0.23 5.67,2.54 c 16,6.91 22.11,10.61 24.66,14.81 1.75,2.94 1.93,3.05 4.45,2.57 6.11,-1.15 11.89,0.73 17.56,5.72 3.1,2.76 4.22,3 6.29,1.45 a 17.75,17.75 0 0 0 6.27,-11.53 c 0.8,-6.22 -1.38,-26.08 -3.51,-31.8 -1.61,-4.32 -1.31,-4.5 2,-1.06 3.93,4.09 3.93,4.09 7.49,-2.53 a 42.42,42.42 0 0 1 3.17,-5.07 c 6.68,-8.43 6.45,-24 -0.39,-30.93 -3.44,-3.44 -9.28,-6.68 -18.71,-10.24 -9.25,-3.56 -10.79,-4.84 -17.68,-14.42 -8.29,-11.62 -9.76,-13 -16.62,-16.26 -14.17,-6.73 -48.24,-12.9 -59,-10.72 -10.13,2.07 -23.88,10.26 -30.31,18.12 -4,4.89 -14.47,8.66 -29.25,10.61 -19.29,2.48 -28.79,19 -23.9,41.47 0.92,4.39 0.87,4.34 3.79,0.78 9.3,-11.6 27.76,-22.41 44.31,-25.95 13.2,-2.76 33.87,-2.89 46.15,-0.23 l 2.2,0.51 h -3.31 c -17.22,0.23 -43.72,5.9 -62.5,13.41 l -4,1.61 -0.37,2 c -0.34,1.91 -0.51,2.14 -6.45,8.06 -12.34,12.32 -15.92,18.27 -17.87,29.52 -0.92,5.49 0.83,13.52 3.44,15.57 0.62,0.51 1.08,1.15 1,1.38 q -0.4,2.57 -0.6,5.17 c -1.75,19.4 7.42,42.84 22,56.32 l 3.31,3.05 2.48,-2.07 c 7.28,-5.95 19.72,-14.1 20.39,-13.36 1,1.15 0.78,2.07 -0.76,3.56 -2,1.88 -4.5,5.19 -11.39,14.74 l -5.95,8.29 0.16,2.39 a 27.62,27.62 0 0 0 3.38,10.36 c 0.69,1.06 2.07,3.44 3.12,5.26 a 123,123 0 0 0 9.74,14.74 85.42,85.42 0 0 1 6.52,9.21 c 0.64,1.06 1.15,1.47 1.61,1.38 0.92,-0.23 2.07,0.6 6.41,4.68 4.27,3.93 1.91,2.8 19.4,9.37 18.9,7.09 26,8.47 33.64,6.57 2.07,-0.51 2.23,-0.51 3.86,0.34 2.07,1.08 2.07,1.08 3.74,0 v 0.11 z m -145.78,-87.7 c 0.07,-0.07 0.46,-2.36 0.85,-5.17 a 59.51,59.51 0 0 1 1.84,-8.43 l 4.43,-14.79 c 4.06,-13.82 3.65,-12.63 4.09,-11.94 0.57,1 0.34,-0.23 -0.37,-1.7 a 40.73,40.73 0 0 1 -1.52,-3.93 l -0.78,-2.48 0.78,-13.5 0.78,-13.52 -1.26,-9.12 q -0.58,-4.68 -1.47,-9.32 c -0.73,-0.73 -10.65,3.33 -13.75,5.63 -4,3 -9.21,15.59 -11.3,27.41 -2.76,15.93 -0.18,37.82 5.19,44 1.61,1.84 5.19,8.68 8.2,15.61 l 0.78,1.77 1.72,-0.23 a 7.9,7.9 0 0 0 1.79,-0.3 z m 339.24,-30.08 c 2.89,-2 5.46,-4.06 5.65,-4.5 0.34,-0.85 4.89,-25.23 6.45,-34.6 l 1,-5.9 -1,-10.26 -1,-10.24 -2.87,-11 c -2.85,-10.91 -2.94,-11.11 -6.06,-17.34 -5,-9.9 -4.45,-5.42 -8.7,-77.1 l -0.8,-13.27 -1.22,-1.26 c -1.61,-1.72 -7.74,-10.52 -22.11,-31.869996 q -6,-9.18 -12.54,-17.93 -9.38,-1.92 -18.85,-3.35 c -9.07,-1.26 -16.9,-0.57 -24.22,2.16 -2.94,1.1 -3.21,1.15 -4.62,0.69 -3.17,-1.08 -6.73,-0.07 -13.06,3.77 l -3.33,2 -3.81,-5.07 c -4.39,-5.76 -4.45,-5.85 -13.09,-11.53 -14.69,-9.55 -16.44,-10.31 -37.47,-15.89 -8.11,-2.16 -7.14,-1.42 -22.8,-17 l -12.28,-12.22 -13.43,0.18 c -22.71,0.34 -34,1.38 -36.74,3.26 -16.35,11.66 -25.12,20.39 -35.31,35.15 l -2.36,3.44 -8.86,4.22 c -9.69,4.66 -23.74,9 -27.58,8.47 -2.11,-0.28 -9.67,-4.13 -15.11,-7.83 -10.06,-6.68 -17,-7.49 -25,-2.85 -6.519996,3.74 -11.089996,6.18 -29.529996,15.5 -19.77,10 -22.16,11.39 -28.61,16.19 l -3.77,2.82 -3.28,6.609996 c -7.14,14.37 -7,13.82 -7.37,32.49 -0.69,34.9 -0.8,46.1 -0.37,48.72 a 40.31,40.31 0 0 1 0.37,11.6 c -0.64,3.93 -8.89,31.85 -13.43,45.39 a 97.39,97.39 0 0 0 -3.65,16.9 c -0.23,1.61 0,4 0.83,9 0.6,3.77 1.61,10.36 2.23,14.69 1.52,10.65 2.76,12.9 8.22,14.69 4.8,1.61 7.09,1.45 16.81,-1 18.21,-4.66 18.67,-4.52 26,8.68 1.79,3.15 2.57,4.22 3.28,4.43 2.41,0.69 16.65,0.23 19.88,-0.62 l 4.45,-1.15 1.29,-0.34 -0.46,-2.2 a 55.45,55.45 0 0 1 -0.53,-14.33 138.49,138.49 0 0 1 3.51,-20.41 c 0.09,-0.39 -0.14,-0.09 -0.51,0.69 l -0.69,1.38 -0.8,-3.6 a 43.23,43.23 0 0 0 -6.68,-15.43 146.86,146.86 0 0 1 -9.67,-20 l -2.14,-5.3 0.23,-3.7 c 1.15,-16.49 5.14,-27.23 13.71,-36.62 5.21,-5.69 6.73,-8.06 7.46,-12 0.57,-3 2.429996,-18.53 3.929996,-32 l 1.31,-12.56 5.64,-16.52 c 3,-9 5.3,-16.579996 5.17,-16.719996 q -7.79,-4 -15.909996,-7.37 c -2.85,-0.8 -9.46,-0.53 -14.51,0.62 -16.19,3.7 -28.1,12.209996 -28.7,20.499996 -0.16,1.84 -8.31,19 -9.07,19 -0.46,0 -1.7,-2.25 -2.14,-3.88 -0.44,-1.63 -0.28,-2.64 1.68,-8.06 0.73,-2 2.23,-7 3.33,-11.18 2.76,-10.169996 3.21,-10.999996 9.3,-13.749996 l 10.72,-5.07 c 15.5,-7.46 37.999996,-13.27 43.599996,-11.25 3.28,1.15 8.24,5.19 12.67,10.24 l 2.11,2.39 -2.07,5.65 c -10.52,29.069996 -13.18,37.129996 -13.92,41.859996 -1.63,10.52 -1.52,33.64 0.18,38.92 1.33,4.32 1.24,4.48 -5.12,8.66 -10.999996,7.26 -21.879996,21.1 -22.339996,28.31 -0.3,4.84 2.07,14.56 5.07,20.39 1.19,2.41 13.519996,21 13.909996,21 a 8.32,8.32 0 0 0 1.31,-2.07 43.81,43.81 0 0 1 16.16,-17.75 c 7.26,-4.68 7.28,-4.68 7.83,-7.19 3.7,-16.65 9.76,-26.27 20.21,-31.8 l 4.52,-2.41 -2.18,-0.8 c -3.33,-1.22 -6.22,-3.28 -9.83,-7.07 -16,-16.83 -22.18,-36 -15.8,-48.84 a 37.08,37.08 0 0 0 1.65,-4.22 c 5.63,-17.34 21.38,-26.73 42.29,-25.28 20.57,1.45 29.71,6.8 37.15,21.58 7.14,14.33 6.75,27.35 -1.26,40.2 l -1.52,2.43 1.38,-1.33 c 1.56,-1.45 17.59,-8.59 21.72,-9.67 6.15,-1.61 15.13,-0.69 43.49,4.43 11.46,2.07 13.41,2.87 18.9,7.83 1.15,1.1 2.07,1.75 2.07,1.47 0,-0.28 -0.23,-2.39 -0.57,-4.73 -1.91,-14.17 0.78,-32.17 6.18,-41 6.52,-10.7 31.57,-20.27 45.32,-17.31 6.91,1.49 17.66,8.15 23.44,14.58 0.73,0.83 1.38,1.29 1.38,1 0,-0.29 -0.46,-7.46 -0.92,-16 q -0.59,-7.9 -0.69,-15.819996 c 0.18,-0.14 3.31,-1.93 7,-4 l 6.73,-3.7 1.19,0.92 c 1,0.73 3.88,1.45 17.91,4.39 l 17.52,3.77 c 0.62,0.14 2,2.07 5,6.999996 2.23,3.77 6.22,10.29 8.91,14.51 9.76,15.61 11.53,19.65 9.44,21.61 -2.09,1.96 -2.48,2 -3.88,-0.16 -0.69,-1 -4.62,-7.21 -8.7,-13.66 q -3.89,-6.27 -8.06,-12.38 c -0.46,-0.46 -22.91,-7.94 -34.14,-11.41 -5.49,-1.679996 -11.3,26.43 -10,48.19 0.46,7.32 0.46,7.37 6.68,13.09 3.88,3.58 19.7,25.85 22.8,32.08 l 1.54,3.12 -0.14,19 -0.11,18.94 -2.41,4.06 c -10.13,17 -15.93,23.44 -22.62,25.16 -3.7,0.92 -7.78,4 -7.44,5.53 0.11,0.51 0.3,3.54 0.46,6.68 0.14,3.83 0.37,5.81 0.62,5.81 0.25,0 1.68,-0.23 3.21,-0.53 10.45,-2 22,-1.31 29,1.68 2.53,1.08 2.66,1.47 2.94,7.9 0.39,8.61 1,9.34 8.11,10.49 8,1.26 10.75,2.62 16,7.9 l 2.94,3 21.22,0.09 5.63,-3.86 z m -267.46,-215.509996 q -9.37,-6 -19.13,-11.34 c -7.76,-3.93 -8.06,-4.62 -2.69,-7.09 7.83,-3.6 10.88,-2.53 20.85,7.23 3.86,3.79 8.47,8 10.29,9.44 3.58,2.71 7.53,6.31 7.53,6.82 0,0.51 -2.64,3.209996 -3.21,3.209996 q -6.97,-3.859996 -13.64,-8.269996 z m 91.54,4.36 a 11.87,11.87 0 0 1 -5.4,-4.39 l -1,-1.61 0.69,-1.56 c 0.92,-2.18 1.75,-3 5.3,-5.3 1.7,-1.15 3.65,-2.53 4.32,-3.08 3.65,-3.21 27.07,-12.81 31.18,-12.81 2.3,0 3,0.46 4,2.87 a 14.56,14.56 0 0 0 1.49,2.76 c 1.15,1.29 -1.38,2.64 -7.83,4.11 -3.44,0.78 -11.53,4 -18.78,7.53 l -5.92,2.87 -3.4,4.62 c -1.84,2.53 -3.44,4.62 -3.44,4.62 l -1.31,-0.57 z m 51.66,197.669996 c 2.69,-2.36 14.05,-7.67 20.62,-9.6 2.39,-0.69 3.93,-7 3.93,-16.53 v -5.37 l -2.11,-4.39 c -2.23,-4.62 -4.66,-8.68 -5.07,-8.52 -0.14,0 -4.66,5.76 -10,12.77 l -9.83,12.7 0.23,5.72 0.23,10.19 c 0,5.17 -0.14,5 2.07,3.08 z m 37.63,-41.31 7.9,-3 2.57,-3.88 c 9,-13.59 11.76,-20.69 12.15,-31.66 l 0.23,-7.07 -5.24,-8.29 c -8.86,-13.94 -14.6,-23.37 -16.58,-27.25 a 8.17,8.17 0 0 0 -1.42,-2.3 c -1.42,-0.92 -5.63,2.76 -10.52,9.21 -3.44,4.62 -5.19,5.83 -15.48,11 -13.59,6.77 -20.11,7.83 -29.66,4.89 q -6.26,-2.06 -12.67,-3.58 c -1,0 3.05,4.73 6.75,8 2.89,2.53 5.07,3.7 7.94,4.16 4.39,0.69 12.56,5.3 25.12,14.05 7,4.91 6,3.05 6.68,12.63 l 0.62,8.06 1.84,1.79 c 2.3,2.25 4.91,5.76 8.75,11.71 1.61,2.57 3,4.71 3,4.71 l 8,-3.08 z m -39.44,-71.63 c 10.24,-3.77 16.16,-15.27 12.1,-23.49 -4.45,-9 -14.56,-16.12 -22.91,-16.12 -9.76,0 -22.48,11.07 -22.48,19.59 0,0.18 1.33,-0.87 2.92,-2.39 7.55,-7.14 15.89,-7.94 24.11,-2.41 8.84,5.92 10.77,17.68 4,24.43 -1.79,1.84 -1.54,1.84 2.3,0.46 z m -176.89,-3.65 a 22.11,22.11 0 0 1 -0.6,-9.09 c 3.33,-17.86 25,-23.08 34.67,-8.36 l 1.47,2.3 -0.21,-3 c -1.58,-22.29 -25.12,-28.33 -39.63,-10.17 -8.17,10.26 -6.87,25.95 2.41,29.25 2.36,0.83 2.46,0.78 1.84,-1 z m 203.43,-12.1 c 6,-10.08 5.19,-24.18 -2,-35.13 -9.67,-14.74 -24.89,-19.31 -41.47,-12.44 -12.83,5.3 -17.82,11.87 -18.94,24.82 -0.51,5.76 -0.28,6.45 1.33,4 5.46,-8.13 14.79,-12.56 25.12,-12 16.35,0.87 28.47,12.38 31.8,30.22 l 0.78,4.2 0.18,0.92 0.92,-1.15 a 35.82,35.82 0 0 0 2.3,-3.54 z m -32.86,2.07 a 3.08,3.08 0 0 0 0,-4.39 3,3 0 0 0 -2.2,-0.92 2.94,2.94 0 0 0 -2.23,0.92 3,3 0 0 0 -0.87,2.2 3.13,3.13 0 0 0 5.35,2.25 v -0.07 z m -188.69,-4.8 c 3.17,-17.75 16.81,-29.6 34,-29.6 11.14,0 19.24,6.29 23.95,18.58 1.24,3.21 1.38,3.28 2,0.8 1.61,-6.29 -0.23,-19.47 -3.74,-26.38 -6,-11.89 -23.7,-17.89 -40.2,-13.57 -9.53,2.43 -20.66,14.69 -22.89,25.19 -2.3,10.75 -0.87,19.49 4.39,26.79 1.77,2.48 1.77,2.48 2.53,-1.84 z m 44.27,0 a 3,3 0 0 0 0.92,-2.2 2.94,2.94 0 0 0 -0.92,-2.23 2.82,2.82 0 0 0 -2.2,-0.94 2.86,2.86 0 0 0 -2.2,0.92 2.89,2.89 0 0 0 -0.92,2.23 3.12,3.12 0 0 0 5.33,2.2 z"
     style="fill:#000000"
     id="path4" />
</svg>
