<?xml version="1.0" encoding="UTF-8" standalone="no"?>
<svg
   class="logo"
   width="59.999901"
   height="60"
   viewBox="0 0 59.999901 60"
   version="1.1"
   id="svg14"
   sodipodi:docname="stimulus.svg"
   inkscape:version="1.1.2 (0a00cf5339, 2022-02-04)"
   xmlns:inkscape="http://www.inkscape.org/namespaces/inkscape"
   xmlns:sodipodi="http://sodipodi.sourceforge.net/DTD/sodipodi-0.dtd"
   xmlns="http://www.w3.org/2000/svg"
   xmlns:svg="http://www.w3.org/2000/svg">
  <defs
     id="defs18" />
  <sodipodi:namedview
     id="namedview16"
     pagecolor="#ffffff"
     bordercolor="#666666"
     borderopacity="1.0"
     inkscape:pageshadow="2"
     inkscape:pageopacity="0.0"
     inkscape:pagecheckerboard="0"
     showgrid="false"
     fit-margin-top="0"
     fit-margin-left="0"
     fit-margin-right="0"
     fit-margin-bottom="0"
     inkscape:zoom="3.6189189"
     inkscape:cx="87.042569"
     inkscape:cy="30.119492"
     inkscape:window-width="1920"
     inkscape:window-height="1022"
     inkscape:window-x="1920"
     inkscape:window-y="0"
     inkscape:window-maximized="1"
     inkscape:current-layer="svg14" />
  <g
     class="logo__icon"
     fill="#d9c6a4"
     id="g8"
     style="fill:#77e8b9;fill-opacity:1">
    <path
       d="M 1.76,1.85885e-8 H 58.2399 C 58.7016,-6.70275e-5 59.1447,0.181237 59.474,0.50484 59.8032,0.828443 59.9921,1.26844 59.9999,1.73 v 5.64823 c 0,0.49416 0,0.74124 -0.0961,0.92999 -0.0846,0.16602 -0.2196,0.30101 -0.3856,0.3856 -0.1888,0.09617 -0.4359,0.09617 -0.93,0.09617 H 45.92 c -1.1478,0.04557 -2.2698,0.35344 -3.28,0.9 L 15.64,25.55 c -1.0139,0.5464 -2.1392,0.8542 -3.29,0.9 H 1.41176 c -0.49416,0 -0.741242,0 -0.929987,-0.0962 C 0.315747,26.2692 0.180765,26.1342 0.0961706,25.9682 0,25.7795 0,25.5324 0,25.0382 V 17.2717 C 0,16.7776 0,16.5305 0.0961706,16.3418 0.180765,16.1757 0.315747,16.0408 0.481773,15.9562 0.670518,15.86 0.9176,15.86 1.41176,15.86 H 12.35 c 1.1501,0.0506 2.2743,0.3581 3.29,0.9 l 3,1.75 c 0.4637,0.2394 0.9781,0.3643 1.5,0.3643 0.5219,0 1.0362,-0.1249 1.5,-0.3643 l 3.84,-2.26 c 0.1638,-0.0839 0.3012,-0.2114 0.3972,-0.3685 0.096,-0.157 0.1468,-0.3375 0.1468,-0.5215 0,-0.1841 -0.0508,-0.3645 -0.1468,-0.5216 C 25.7812,14.6814 25.6438,14.5539 25.48,14.47 L 17.4,9.71999 C 16.3879,9.17798 15.2669,8.8704 14.12,8.81999 H 1.41176 c -0.49416,0 -0.741242,0 -0.929987,-0.09617 C 0.315747,8.63923 0.180765,8.50424 0.0961706,8.33822 0,8.14947 0,7.90239 0,7.40823 V 1.76 C 0,1.29322 0.185428,0.845555 0.515492,0.515492 0.845555,0.185428 1.29322,1.85885e-8 1.76,1.85885e-8 Z"
       id="path2"
       style="fill:#77e8b9;fill-opacity:1" />
    <path
       d="m 47.65,15.8799 c -1.1502,0.0506 -2.2743,0.3581 -3.29,0.9 l -27,15.87 c -1.0121,0.542 -2.1331,0.8495 -3.28,0.9 H 1.41176 c -0.49416,0 -0.741242,0 -0.929987,0.0961 C 0.315747,33.7306 0.180765,33.8656 0.0961706,34.0316 0,34.2204 0,34.4674 0,34.9616 v 7.7665 c 0,0.4941 0,0.7412 0.0961706,0.93 0.0845944,0.166 0.2195764,0.301 0.3856024,0.3856 0.188745,0.0961 0.435827,0.0961 0.929987,0.0961 H 12.35 c 1.1501,-0.0506 2.2743,-0.3581 3.29,-0.9 l 27,-15.8699 c 1.012,-0.5421 2.133,-0.8496 3.28,-0.9 h 12.6682 c 0.4941,0 0.7412,0 0.93,-0.0962 0.166,-0.0846 0.301,-0.2196 0.3856,-0.3856 0.0961,-0.1888 0.0961,-0.4358 0.0961,-0.93 v -7.7665 c 0,-0.4941 0,-0.7412 -0.0961,-0.93 -0.0846,-0.166 -0.2196,-0.301 -0.3856,-0.3856 -0.1888,-0.0961 -0.4359,-0.0961 -0.93,-0.0961 z"
       id="path4"
       style="fill:#77e8b9;fill-opacity:1" />
    <path
       d="m 47.65,33.56 c -1.1502,0.0506 -2.2743,0.3582 -3.29,0.9 l -27,15.86 c -1.0103,0.5466 -2.1323,0.8544 -3.28,0.9 H 1.41176 c -0.49416,0 -0.741242,0 -0.929987,0.0962 C 0.315747,51.4008 0.180765,51.5358 0.0961706,51.7018 0,51.8905 0,52.1376 0,52.6318 V 58.28 c 0.0129646,0.459 0.203789,0.895 0.532182,1.2159 C 0.860576,59.8168 1.30083,59.9976 1.76,60 h 56.4799 c 0.4643,-0.0026 0.9089,-0.1875 1.2382,-0.5148 0.3292,-0.3274 0.5166,-0.771 0.5218,-1.2352 v -5.6482 c 0,-0.4942 0,-0.7413 -0.0961,-0.93 -0.0846,-0.166 -0.2196,-0.301 -0.3856,-0.3856 C 59.3294,51.19 59.0823,51.19 58.5882,51.19 H 45.88 C 44.7322,51.1444 43.6102,50.8366 42.6,50.29 L 34.52,45.55 C 34.3536,45.4671 34.2136,45.3394 34.1157,45.1813 34.0179,45.0232 33.966,44.8409 33.966,44.655 c 0,-0.1859 0.0519,-0.3682 0.1497,-0.5263 0.0979,-0.1581 0.2379,-0.2857 0.4043,-0.3687 l 3.84,-2.25 c 0.4637,-0.2394 0.9781,-0.3643 1.5,-0.3643 0.5219,0 1.0362,0.1249 1.5,0.3643 l 3,1.74 c 1.0139,0.5464 2.1391,0.8542 3.29,0.9 h 10.9382 c 0.4941,0 0.7412,0 0.93,-0.0962 0.166,-0.0845 0.301,-0.2195 0.3856,-0.3856 0.0961,-0.1887 0.0961,-0.4358 0.0961,-0.9299 v -7.7665 c 0,-0.4942 0,-0.7413 -0.0961,-0.93 -0.0846,-0.166 -0.2196,-0.301 -0.3856,-0.3856 C 59.3294,33.56 59.0823,33.56 58.5882,33.56 Z"
       id="path6"
       style="fill:#77e8b9;fill-opacity:1" />
  </g>
</svg>
