<?xml version="1.0" encoding="utf-8"?>
<!-- Generator: Adobe Illustrator 27.0.0, SVG Export Plug-In . SVG Version: 6.00 Build 0)  -->
<svg version="1.1" id="Layer_1" xmlns="http://www.w3.org/2000/svg" xmlns:xlink="http://www.w3.org/1999/xlink" x="0px" y="0px"
	 viewBox="0 0 182.6 256" enable-background="new 0 0 182.6 256" xml:space="preserve">
<g>
	<g>
		
			<radialGradient id="SVGID_1_" cx="291.1525" cy="384.3177" r="38.2822" gradientTransform="matrix(0.4025 0 0 0.4117 37.0604 93.2502)" gradientUnits="userSpaceOnUse">
			<stop  offset="0" style="stop-color:#323232;stop-opacity:0.92"/>
			<stop  offset="0.24" style="stop-color:#272727;stop-opacity:0.64"/>
			<stop  offset="0.64" style="stop-color:#0B0B0B;stop-opacity:9.000000e-02"/>
			<stop  offset="0.79" style="stop-color:#000000;stop-opacity:0"/>
		</radialGradient>
		<ellipse opacity="0.3" fill="url(#SVGID_1_)" cx="154.2" cy="251.5" rx="21.3" ry="4.5"/>
		
			<linearGradient id="SVGID_00000065777192757704129030000014637686648710109105_" gradientUnits="userSpaceOnUse" x1="130.8784" y1="1553.4095" x2="130.8784" y2="1426.9491" gradientTransform="matrix(-1 0 0 1 285.6655 -1344)">
			<stop  offset="0" style="stop-color:#3D6A06"/>
			<stop  offset="0.16" style="stop-color:#588710"/>
			<stop  offset="0.33" style="stop-color:#6D9D18"/>
			<stop  offset="0.51" style="stop-color:#7BAE1E"/>
			<stop  offset="0.72" style="stop-color:#84B721"/>
			<stop  offset="1" style="stop-color:#87BA22"/>
		</linearGradient>
		<path fill="url(#SVGID_00000065777192757704129030000014637686648710109105_)" d="M164.8,88.8c-11.7,47.9-18.9,125-20,149.1h18.6
			C160.3,231,162.6,121.7,164.8,88.8z"/>
		
			<linearGradient id="SVGID_00000144308647632658676150000004070230107310284681_" gradientUnits="userSpaceOnUse" x1="125.4" y1="1582.1335" x2="125.4" y2="1433.0446" gradientTransform="matrix(-1 0 0 1 285.6655 -1344)">
			<stop  offset="0" style="stop-color:#BBE882"/>
			<stop  offset="0.14" style="stop-color:#BEE988;stop-opacity:0.92"/>
			<stop  offset="0.34" style="stop-color:#C8EC9A;stop-opacity:0.8"/>
			<stop  offset="0.58" style="stop-color:#D8F2B7;stop-opacity:0.67"/>
			<stop  offset="0.83" style="stop-color:#EEF9E0;stop-opacity:0.53"/>
			<stop  offset="1" style="stop-color:#FFFFFF;stop-opacity:0.43"/>
		</linearGradient>
		<path opacity="0.28" fill="url(#SVGID_00000144308647632658676150000004070230107310284681_)" enable-background="new    " d="
			M164.8,89c0,0-10,94.6-9,149.1h7.6C160.3,231.2,162.6,121.9,164.8,89z"/>
		
			<linearGradient id="SVGID_00000132787668817987137240000002246080676805347504_" gradientUnits="userSpaceOnUse" x1="128.3136" y1="1574.702" x2="128.3136" y2="1441.7286" gradientTransform="matrix(-1 0 0 1 285.6655 -1344)">
			<stop  offset="0" style="stop-color:#48790B"/>
			<stop  offset="0.82" style="stop-color:#FFFFFF;stop-opacity:0.43"/>
		</linearGradient>
		<path opacity="0.33" fill="url(#SVGID_00000132787668817987137240000002246080676805347504_)" enable-background="new    " d="
			M164.8,88.8c-0.2,0.5-0.4,1.1-0.4,1.7c-3.3,15.6-15.9,107.4-14.4,117.4c5.3,8.8,4.8,28.2,4.8,28.2l7.9-2.3
			C160.6,212.3,162.8,118.8,164.8,88.8z"/>
		
			<linearGradient id="SVGID_00000044150187878540088310000009186588451634192257_" gradientUnits="userSpaceOnUse" x1="118.3363" y1="1593.74" x2="118.3363" y2="1548.2743" gradientTransform="matrix(-1 0 0 1 285.6655 -1344)">
			<stop  offset="0" style="stop-color:#5E7814"/>
			<stop  offset="0.51" style="stop-color:#8AA21F"/>
			<stop  offset="1" style="stop-color:#B1C628"/>
		</linearGradient>
		<path fill="url(#SVGID_00000044150187878540088310000009186588451634192257_)" d="M182.6,175c-22.5,15.3-30.7,54.7-30.4,77.5
			l11.8-0.5C162.8,206.6,171.1,189.2,182.6,175z"/>
		
			<linearGradient id="SVGID_00000009578451539918357980000012656114263655756440_" gradientUnits="userSpaceOnUse" x1="116.7857" y1="1586.1418" x2="117.4955" y2="1549.4855" gradientTransform="matrix(-1 0 0 1 285.6655 -1344)">
			<stop  offset="0" style="stop-color:#82AF10"/>
			<stop  offset="0.82" style="stop-color:#FFFFFF;stop-opacity:0"/>
		</linearGradient>
		<path opacity="0.17" fill="url(#SVGID_00000009578451539918357980000012656114263655756440_)" enable-background="new    " d="
			M180.8,177.1c-25.6,20.5-25.3,66.7-25,75.4l8-0.3c-1-43.5,6.6-61.3,17.2-75.1L180.8,177.1z"/>
		
			<linearGradient id="SVGID_00000094596219196475993690000001092097136866846390_" gradientUnits="userSpaceOnUse" x1="146.7525" y1="1595.2012" x2="146.7525" y2="1554.2445" gradientTransform="matrix(-1 0 0 1 285.6655 -1344)">
			<stop  offset="0" style="stop-color:#5E7814"/>
			<stop  offset="0.14" style="stop-color:#758E1A"/>
			<stop  offset="0.34" style="stop-color:#8FA620"/>
			<stop  offset="0.55" style="stop-color:#A2B824"/>
			<stop  offset="0.77" style="stop-color:#ADC327"/>
			<stop  offset="1" style="stop-color:#B1C628"/>
		</linearGradient>
		<path fill="url(#SVGID_00000094596219196475993690000001092097136866846390_)" d="M123.1,204.6c39.4-5.6,31,50.3,30.6,50.6
			c-0.4,0.4-12.5-0.8-12.1-2.5C146.1,234.8,144.5,205.5,123.1,204.6z"/>
		
			<linearGradient id="SVGID_00000032610138696937227980000012594039007160571066_" gradientUnits="userSpaceOnUse" x1="136.8804" y1="1598.2908" x2="136.8804" y2="1551.9377" gradientTransform="matrix(-1 0 0 1 285.6655 -1344)">
			<stop  offset="0" style="stop-color:#FFFFFF"/>
			<stop  offset="1" style="stop-color:#FFFFFF;stop-opacity:0"/>
		</linearGradient>
		
			<path opacity="8.000000e-02" fill="url(#SVGID_00000032610138696937227980000012594039007160571066_)" enable-background="new    " d="
			M143,208.9c5.8,15.2,3.4,41,2.9,45.7c2.5,0.5,5.1,0.7,7.6,0.7C153.9,254.8,158.9,221.4,143,208.9z"/>
		
			<radialGradient id="SVGID_00000060722498187985064810000009697532564716039857_" cx="127.8307" cy="30.7477" r="5.2029" gradientTransform="matrix(-1 0 0 -1 285.6655 257.0243)" gradientUnits="userSpaceOnUse">
			<stop  offset="0" style="stop-color:#323232"/>
			<stop  offset="0.29" style="stop-color:#252525;stop-opacity:0.67"/>
			<stop  offset="0.83" style="stop-color:#040404;stop-opacity:7.000000e-02"/>
			<stop  offset="0.89" style="stop-color:#000000;stop-opacity:0"/>
		</radialGradient>
		
			<ellipse opacity="0.47" fill="url(#SVGID_00000060722498187985064810000009697532564716039857_)" enable-background="new    " cx="157.8" cy="226.3" rx="5.4" ry="5"/>
		
			<radialGradient id="SVGID_00000034082549059662324210000006006855171958414464_" cx="135.6379" cy="30.7477" r="5.2029" gradientTransform="matrix(-1 0 0 -1 285.6655 257.0243)" gradientUnits="userSpaceOnUse">
			<stop  offset="0" style="stop-color:#323232"/>
			<stop  offset="0.29" style="stop-color:#252525;stop-opacity:0.67"/>
			<stop  offset="0.83" style="stop-color:#040404;stop-opacity:7.000000e-02"/>
			<stop  offset="0.89" style="stop-color:#000000;stop-opacity:0"/>
		</radialGradient>
		
			<ellipse opacity="0.47" fill="url(#SVGID_00000034082549059662324210000006006855171958414464_)" enable-background="new    " cx="150" cy="226.3" rx="5.4" ry="5"/>
		<circle fill="#FFFFFF" cx="157.8" cy="226.3" r="3.1"/>
		<circle fill="#FFFFFF" cx="150" cy="226.3" r="3.1"/>
		<path fill="#A0CB29" d="M173.1,252.3h2.4l4.4-7.6 M170.2,234.5l-7.9,21.2h5.3 M130.8,237.9l2.6,16.4h3.5 M123.6,244l1.4,6h3"/>
	</g>
	<g>
		
			<linearGradient id="SVGID_00000175291381931852749820000018032662859067952548_" gradientUnits="userSpaceOnUse" x1="85.9281" y1="64.1275" x2="85.9281" y2="266.5356" gradientTransform="matrix(-1 0 0 -1 131.9759 257.0243)">
			<stop  offset="0" style="stop-color:#3D6A06"/>
			<stop  offset="0.16" style="stop-color:#588710"/>
			<stop  offset="0.33" style="stop-color:#6D9D18"/>
			<stop  offset="0.51" style="stop-color:#7BAE1E"/>
			<stop  offset="0.72" style="stop-color:#84B721"/>
			<stop  offset="1" style="stop-color:#87BA22"/>
		</linearGradient>
		<path fill="url(#SVGID_00000175291381931852749820000018032662859067952548_)" d="M71.6,231.1c2.7-49.3,0.5-86.8-1.8-104
			c-0.7-5.8-2.7-18.3-5.3-31.8c-1.9-10.1-3.1-14.4-3.9-17.5c-0.9-3.2-2.3-7.6-5.1-16.6c-1-3.4-2-6.2-3.2-9.8c-1.4-4.1-2.1-6.3-3.2-9
			c-0.4-1.1-2.2-5.3-5.3-12.2c-2.1-4.8-4.6-9.5-7.4-14c-4-5.8-8.1-11.7-14.1-13C11.6,0.8,0.7,14.2,0,13.5S4.9,4.3,14.6,1.2
			c3.7-1.1,7.7-1.4,11.5-0.7C34.8,2.1,40.4,8,47.3,15.6c3.8,4.3,7.3,8.9,10.4,13.8c4.7,7,8.7,14.5,12,22.3c1.5,3.6,2.5,6.7,4.5,12.7
			c3.1,9.7,5.6,19.6,7.7,29.6c0,0,0.3,1.5,0.7,3.2c3.9,20.4,6.5,41,7.8,61.8c1.9,26.5,2.3,53,1.4,79.6"/>
		
			<radialGradient id="SVGID_00000132055948566545280860000017141992093646669233_" cx="96.0907" cy="374.6426" r="38.2822" gradientTransform="matrix(0.788 0 0 0.4117 8.9912 93.2502)" gradientUnits="userSpaceOnUse">
			<stop  offset="0" style="stop-color:#323232;stop-opacity:0.92"/>
			<stop  offset="0.24" style="stop-color:#272727;stop-opacity:0.64"/>
			<stop  offset="0.64" style="stop-color:#0B0B0B;stop-opacity:9.000000e-02"/>
			<stop  offset="0.79" style="stop-color:#000000;stop-opacity:0"/>
		</radialGradient>
		
			<ellipse opacity="0.3" fill="url(#SVGID_00000132055948566545280860000017141992093646669233_)" cx="84.7" cy="247.5" rx="41.8" ry="4.5"/>
		
			<linearGradient id="SVGID_00000017485715470660130790000001742771049885181849_" gradientUnits="userSpaceOnUse" x1="74.8577" y1="64.9054" x2="74.8577" y2="266.2203" gradientTransform="matrix(-1 0 0 -1 131.9759 257.0243)">
			<stop  offset="0" style="stop-color:#48790B"/>
			<stop  offset="0.82" style="stop-color:#FFFFFF;stop-opacity:0.43"/>
		</linearGradient>
		<path opacity="0.33" fill="url(#SVGID_00000017485715470660130790000001742771049885181849_)" enable-background="new    " d="
			M80.2,232.6c-0.1-8.8-0.3-21.7-0.8-37.3c-1-33.6-1.5-50.8-4-69.7c-1.8-13.8-4-24.5-8.5-46.1c-3-16.8-8-33.2-14.9-48.8
			c-3.2-7.2-7-13.6-13.5-19.7c-8.1-7.5-16.3-10.3-16-10.9c0.3-0.6,9.1,1.7,17.2,8.1c4.1,3.2,6.7,6.3,9.5,9.6
			c2.4,2.9,5.7,7.3,10.7,16.1c4.3,7.6,9.3,16.4,13.6,28.7c1.8,5.3,2.9,10.2,5.1,19.6c1.6,6.9,4.7,20.4,6.9,33.5
			c0.9,5.3,3.4,21.1,5.1,58.7c0.7,16.6,1.3,38,1,63"/>
		
			<linearGradient id="SVGID_00000036953218981802993090000017652489753365692301_" gradientUnits="userSpaceOnUse" x1="76.2442" y1="64.1593" x2="76.2442" y2="266.6947" gradientTransform="matrix(-1 0 0 -1 131.9759 257.0243)">
			<stop  offset="0" style="stop-color:#BBE882"/>
			<stop  offset="0.14" style="stop-color:#BEE988;stop-opacity:0.92"/>
			<stop  offset="0.34" style="stop-color:#C8EC9A;stop-opacity:0.8"/>
			<stop  offset="0.58" style="stop-color:#D8F2B7;stop-opacity:0.67"/>
			<stop  offset="0.83" style="stop-color:#EEF9E0;stop-opacity:0.53"/>
			<stop  offset="1" style="stop-color:#FFFFFF;stop-opacity:0.43"/>
		</linearGradient>
		<path opacity="0.28" fill="url(#SVGID_00000036953218981802993090000017652489753365692301_)" enable-background="new    " d="
			M83.2,237c1.8-61.1-1.2-105.8-3.5-117.8c-5.6-28.2-6.3-29.1-7.6-34c-1.3-4.9-2.5-8.9-3.7-12.7c-2.2-7.6-3.3-11.2-4.2-13.9
			c-2.7-8.4-6.2-16.5-10.3-24.3C49.3,25.7,43.7,17.5,37.4,10c-2.3-2.9-5.3-5.3-8.7-7c-3-1.2-6.2-2.1-9.4-2.6
			c2.2-0.5,4.6-0.4,6.8,0.3c3,0.7,10.1,2.9,21.1,15.1c3.8,4.3,7.3,8.9,10.4,13.8c4.7,7,8.7,14.5,12,22.3c1.5,3.6,2.5,6.7,4.5,12.7
			c3.1,9.7,5.6,19.6,7.7,29.6c0,0,0.3,1.5,0.7,3.2c3.9,20.4,6.5,41,7.8,61.8c1.9,26.5,2.3,53,1.4,79.6"/>
		<g>
			
				<linearGradient id="SVGID_00000119839877824588483110000000614938077197467807_" gradientUnits="userSpaceOnUse" x1="-22.0176" y1="1587.9625" x2="-22.0176" y2="1509.4767" gradientTransform="matrix(1 0 0 1 82.1979 -1344)">
				<stop  offset="0" style="stop-color:#5E7814"/>
				<stop  offset="0.51" style="stop-color:#8AA21F"/>
				<stop  offset="1" style="stop-color:#B1C628"/>
			</linearGradient>
			<path fill="url(#SVGID_00000119839877824588483110000000614938077197467807_)" d="M65.8,247.9l18.9,0.9
				c0.5-39.3-12.9-107.4-49.1-133.8C54.1,139.5,67.4,169.5,65.8,247.9L65.8,247.9z"/>
			
				<linearGradient id="SVGID_00000003065931337286812630000007887727952135428531_" gradientUnits="userSpaceOnUse" x1="-24.4845" y1="1574.8539" x2="-23.2721" y2="1511.6053" gradientTransform="matrix(1 0 0 1 82.1979 -1344)">
				<stop  offset="0" style="stop-color:#82AF10"/>
				<stop  offset="0.82" style="stop-color:#FFFFFF;stop-opacity:0"/>
			</linearGradient>
			<path opacity="0.17" fill="url(#SVGID_00000003065931337286812630000007887727952135428531_)" enable-background="new    " d="
				M38.3,118.6c17.2,24,29.3,54.7,27.7,129.6l12.9,0.6C79.4,233.7,79.7,153.9,38.3,118.6z"/>
		</g>
		<g>
			
				<linearGradient id="SVGID_00000037664208612681200200000009080349468426876062_" gradientUnits="userSpaceOnUse" x1="60.9091" y1="1586.96" x2="60.9091" y2="1509.0201" gradientTransform="matrix(1 0 0 1 48.1509 -1344)">
				<stop  offset="0" style="stop-color:#5E7814"/>
				<stop  offset="0.14" style="stop-color:#758E1A"/>
				<stop  offset="0.34" style="stop-color:#8FA620"/>
				<stop  offset="0.55" style="stop-color:#A2B824"/>
				<stop  offset="0.77" style="stop-color:#ADC327"/>
				<stop  offset="1" style="stop-color:#B1C628"/>
			</linearGradient>
			<path fill="url(#SVGID_00000037664208612681200200000009080349468426876062_)" d="M104.2,246c0.7,3.2-21.6,5.3-22.4,4.6
				c-0.8-0.7-16.2-107.2,56.4-96.5C98.9,156,95.8,211.7,104.2,246z"/>
			
				<linearGradient id="SVGID_00000168079194535806766550000014611375362905408386_" gradientUnits="userSpaceOnUse" x1="42.4231" y1="1592.8795" x2="42.4231" y2="1504.5328" gradientTransform="matrix(1 0 0 1 48.1509 -1344)">
				<stop  offset="0" style="stop-color:#FFFFFF"/>
				<stop  offset="1" style="stop-color:#FFFFFF;stop-opacity:0"/>
			</linearGradient>
			
				<path opacity="8.000000e-02" fill="url(#SVGID_00000168079194535806766550000014611375362905408386_)" enable-background="new    " d="
				M81.8,250.7c4.7,0.1,9.5-0.3,14.1-1.3c-0.9-9-5.3-58,5.3-86.9C71.9,186.4,81.2,250.2,81.8,250.7z"/>
		</g>
		<path fill="#A0CB29" d="M104.2,248.4h2.9l5.2-8.9 M102.3,227l-9.3,25h6.3 M55.7,236.7l3.4,14.8h4.6 M48,241.5l1.7,7.1h3.5"/>
		
			<radialGradient id="SVGID_00000029026911840992648760000001693456991441745300_" cx="196.6482" cy="59.3663" r="8.606" gradientTransform="matrix(-1 0 0 -1 285.6655 257.0243)" gradientUnits="userSpaceOnUse">
			<stop  offset="0" style="stop-color:#323232"/>
			<stop  offset="0.29" style="stop-color:#252525;stop-opacity:0.67"/>
			<stop  offset="0.83" style="stop-color:#040404;stop-opacity:7.000000e-02"/>
			<stop  offset="0.89" style="stop-color:#000000;stop-opacity:0"/>
		</radialGradient>
		
			<ellipse opacity="0.47" fill="url(#SVGID_00000029026911840992648760000001693456991441745300_)" enable-background="new    " cx="89" cy="197.7" rx="9" ry="8.2"/>
		<circle fill="#FFFFFF" cx="89" cy="197.5" r="5.9"/>
		
			<radialGradient id="SVGID_00000026161105266403596000000011268712471354793150_" cx="211.4787" cy="59.3663" r="8.606" gradientTransform="matrix(-1 0 0 -1 285.6655 257.0243)" gradientUnits="userSpaceOnUse">
			<stop  offset="0" style="stop-color:#323232"/>
			<stop  offset="0.29" style="stop-color:#252525;stop-opacity:0.67"/>
			<stop  offset="0.83" style="stop-color:#040404;stop-opacity:7.000000e-02"/>
			<stop  offset="0.89" style="stop-color:#000000;stop-opacity:0"/>
		</radialGradient>
		
			<ellipse opacity="0.47" fill="url(#SVGID_00000026161105266403596000000011268712471354793150_)" enable-background="new    " cx="74.2" cy="197.7" rx="9" ry="8.2"/>
		<circle fill="#FFFFFF" cx="74.2" cy="197.5" r="5.9"/>
	</g>
</g>
</svg>
