<?xml version="1.0" encoding="UTF-8" standalone="no"?>
<!-- Uploaded to: SVG Repo, www.svgrepo.com, Generator: SVG Repo Mixer Tools -->

<svg
   width="30"
   height="35"
   viewBox="0 0 38.4 44.8"
   version="1.1"
   id="svg6"
   sodipodi:docname="logo-packagist.svg"
   inkscape:version="1.2.2 (b0a8486541, 2022-12-01)"
   xmlns:inkscape="http://www.inkscape.org/namespaces/inkscape"
   xmlns:sodipodi="http://sodipodi.sourceforge.net/DTD/sodipodi-0.dtd"
   xmlns="http://www.w3.org/2000/svg"
   xmlns:svg="http://www.w3.org/2000/svg">
  <defs
     id="defs10" />
  <sodipodi:namedview
     id="namedview8"
     pagecolor="#ffffff"
     bordercolor="#666666"
     borderopacity="1.0"
     inkscape:showpageshadow="2"
     inkscape:pageopacity="0.0"
     inkscape:pagecheckerboard="0"
     inkscape:deskcolor="#d1d1d1"
     showgrid="false"
     inkscape:zoom="18.88"
     inkscape:cx="13.71822"
     inkscape:cy="20.3125"
     inkscape:window-width="1920"
     inkscape:window-height="1052"
     inkscape:window-x="0"
     inkscape:window-y="0"
     inkscape:window-maximized="1"
     inkscape:current-layer="svg6" />
  <path
     d="m 21.41171,44.222712 c -0.178549,-0.09681 -0.59913,-0.112679 -2.94248,-0.112679 h -2.295736 l -0.03095,-0.158711 -0.17458,-0.785613 a 6.5071011,6.5071011 0 0 1 -0.127762,-0.645155 0.48327128,0.48327128 0 0 0 -0.06904,-0.195213 l -0.0873,-0.171407 -0.996698,0.15871 c -0.548342,0.08411 -1.089542,0.182516 -1.20064,0.211084 -0.182516,0.05475 -0.200767,0.05475 -0.187277,0.0071 0.06904,-0.254729 0.07935,-0.36662 0.05079,-0.484859 -0.02857,-0.118239 -0.03095,-0.130935 0.433278,-1.175245 0.50311,-1.133188 0.484858,-1.082401 0.431691,-1.155408 -0.03253,-0.04523 -0.07936,-0.03651 -0.555484,0.127762 -0.289646,0.09126 -0.535646,0.169819 -0.548343,0.164265 q 0.361064,-0.67531 0.754666,-1.333956 c 0.822128,-1.40853 1.031625,-1.778323 1.031625,-1.825142 a 6.0166878,6.0166878 0 0 0 -0.493587,-0.555484 c -0.272981,-0.285678 -0.566594,-0.59913 -0.65071,-0.699911 A 1.013362,1.013362 0 0 0 13.549228,35.3921 c -0.09126,-0.03095 -0.480891,-0.420581 -1.344272,-1.33713 q -0.467401,-0.504698 -0.956227,-0.987176 c -0.112679,-0.09126 -0.140457,-0.134903 -0.195213,-0.317419 a 11.865144,11.865144 0 0 0 -0.53009,-1.300627 l -0.174581,-0.366619 v -0.324562 c 0,-0.493587 -0.102366,-0.987174 -0.5046973,-2.425085 L 9.7457471,27.985114 9.5870373,27.966859 C 9.2354957,27.935914 9.0712311,27.743082 8.8014245,27.048727 Q 8.6101792,26.609893 8.3808435,26.188519 C 8.1983273,25.840151 7.9785143,25.40846 7.8872562,25.219596 l -0.1587096,-0.337259 -0.146013,-0.01825 a 1.3085622,1.3085622 0 0 0 -0.6578519,0.09126 c -0.2190195,0.09126 -0.6284908,0.115064 -1.126046,0.06745 L 5.0717449,24.953757 4.7090931,24.917254 4.51388,24.568885 c -0.293613,-0.517393 -0.293613,-0.51898 -0.4332776,-0.5904 -0.1642647,-0.08411 -0.2936132,-0.08411 -1.0419298,0 l -0.5919875,0.06348 -0.446768,-0.06348 C 0.82467121,23.807079 0.54772257,23.676143 0.54772257,23.29524 A 7.7926503,7.7926503 0 0 0 0.36203222,22.404084 C 0.12396747,21.442303 -0.03474229,20.352761 0.00652226,19.977412 0.06841908,19.441766 0.50407748,18.162565 1.1651036,16.569913 l 0.2586969,-0.621349 0.042058,-0.996698 C 1.7245553,8.9867587 1.7904198,8.1011577 1.9832522,7.7527906 2.0467365,7.6401004 2.8363173,6.9671774 3.156911,6.7473637 3.7671502,6.3394795 5.8954483,5.2896147 8.2626044,4.2349881 l 0.6999102,-0.3118647 0.3555099,-0.022219 0.3515422,-0.018252 0.9522593,0.5991294 0.952259,0.5991285 0.770536,-0.364238 1.190323,-0.568181 c 0.428517,-0.1968001 0.430104,-0.2007679 0.668962,-0.4610519 0.334877,-0.3666196 0.896709,-1.0316136 1.078432,-1.280788 0.215053,-0.293613 0.719749,-0.707052 1.487111,-1.2244459 0.268219,-0.1785485 0.337259,-0.21108399 1.036375,-0.48089065 l 0.420581,-0.16426533 h 0.89433 c 0.822117,0 0.914962,0.005558 1.190323,0.0674515 0.652298,0.14204525 1.190323,0.3515422 1.249839,0.48644551 0.04047,0.091258 0.127762,0.146013 0.340433,0.2190194 0.254729,0.087291 0.566594,0.3063099 2.229872,1.5720204 0.891156,0.6792778 0.860208,0.6665811 2.804402,1.3101492 l 0.542788,0.1825163 0.317419,0.3840776 c 0.36662,0.438832 0.652298,0.7364128 0.736413,0.7633936 0.127762,0.040474 0.884014,-0.1460127 1.838654,-0.4539091 0.484858,-0.1587101 0.555484,-0.1698197 0.6396,-0.1404585 a 3.3971829,3.3971829 0 0 0 0.584845,0.036503 c 0.493588,0.0087 0.936388,0.061892 2.035454,0.2499676 0.278535,0.049206 0.511839,0.087285 0.515806,0.087285 0.004,0 0.444387,0.7633949 0.978446,1.6997821 0.534059,0.9363873 1.110968,1.909278 1.284755,2.1719436 0.30393,0.4539091 0.317421,0.4808899 0.3444,0.6832455 0.04761,0.3483668 0.146014,1.8362728 0.164265,2.3854078 l 0.04206,1.63233 c 0.0365,1.536311 0.06587,1.894995 0.164265,2.102905 0.169819,0.362652 0.50311,1.360937 1.041929,3.132137 l 0.21902,0.730859 0.01428,1.694227 -0.254729,1.326814 -0.288058,1.481556 -0.02936,0.151568 -0.799897,0.48089 -0.803866,0.482478 -0.584845,-0.02936 c -0.326149,-0.01825 -0.610239,-0.02936 -0.634839,-0.02936 -0.05475,0 -0.12062,0.205529 -0.246,0.74911 -0.07301,0.31742 -0.07935,0.324561 -0.167439,0.340432 l -1.21333,0.192833 c -1.675976,0.264252 -1.889441,0.330116 -2.443338,0.772917 -0.480891,0.384077 -0.480891,0.379316 -1.013361,3.063098 q -0.147601,0.784027 -0.337259,1.559324 c -0.191246,0.577704 -1.714859,3.112299 -2.270344,3.77888 l -0.300755,0.362652 0.116652,0.41582 c 0.06348,0.229335 0.133317,0.482478 0.151568,0.562626 0.02936,0.12776 0.572149,2.197336 0.767362,2.931369 l 0.06904,0.254729 -0.366619,-0.153154 -0.597543,-0.247588 a 0.99114258,0.99114258 0 0 0 -0.238065,-0.08412 c -0.0055,0.0071 0.06031,0.272981 0.146014,0.595956 0.146012,0.524536 0.340431,1.390297 0.32218,1.408548 -0.0055,0 -0.272981,-0.01428 -0.603097,-0.04047 q -0.346781,-0.02936 -0.694355,-0.0365 l -0.09999,0.0087 -0.330116,1.206194 c -0.182516,0.661026 -0.334877,1.210161 -0.340432,1.214923 -0.01825,0.0127 -0.976858,-0.0365 -1.831511,-0.09126 -0.984001,-0.06348 -1.275233,-0.05793 -1.523613,0.03095 -0.22775,0.07935 -0.438834,0.09126 -0.555485,0.02539 z m 3.565416,-0.63484 c 0,-0.04761 0.04205,-0.330116 0.09126,-0.628491 0.04921,-0.298373 0.09126,-0.614206 0.09126,-0.697529 a 0.77053599,0.77053599 0 0 1 0.07301,-0.317419 0.84036829,0.84036829 0 0 0 0.06031,-0.169819 c 0,0 -0.670548,-0.05475 -1.481555,-0.112691 -1.160962,-0.08411 -1.567259,-0.122206 -1.918801,-0.187277 l -0.444387,-0.08411 -1.057802,0.126174 c -0.754664,0.09126 -1.07129,0.142046 -1.106206,0.172995 -0.03492,0.03095 -0.36662,0.07935 -1.297453,0.171406 -0.684832,0.06904 -1.306182,0.13649 -1.3776,0.151567 l -0.130936,0.02381 0.0071,0.151568 c 0.0055,0.118239 0.0365,0.209497 0.151569,0.420581 a 2.1290917,2.1290917 0 0 1 0.219019,0.603097 2.6885437,2.6885437 0 0 0 0.08411,0.342813 c 0.0055,0.0055 1.772789,0.02539 3.930449,0.04205 3.705872,0.02936 3.924892,0.03253 3.992343,0.07936 0.08412,0.06348 0.116652,0.0365 0.116652,-0.09126 z m -8.713167,-2.151311 c 1.587097,-0.223781 2.233839,-0.306309 2.863917,-0.353129 0.705465,-0.05079 1.634711,-0.15871 2.29415,-0.260284 0.103958,-0.01825 0.45153,-0.0365 0.772917,-0.04761 l 0.584845,-0.01825 0.687214,0.17696 0.690387,0.178549 1.242698,0.07301 c 0.687213,0.04206 1.251427,0.07301 1.256981,0.06587 q -0.05555,-0.211084 -0.127761,-0.417407 c -0.07935,-0.222194 -0.200767,-0.607065 -0.282503,-0.853066 l -0.140458,-0.444386 -0.420581,-0.130936 -0.420581,-0.133317 -0.284091,0.12062 -0.28409,0.118239 -3.236092,0.103958 -3.232126,0.10554 -0.219019,-0.109505 -0.215051,-0.103958 H 15.19108 l -0.490413,1.087955 c -0.269806,0.597543 -0.493587,1.096686 -0.50311,1.110969 -0.01428,0.02936 -0.226161,0.05475 2.063228,-0.268219 z m 11.163646,-1.887853 c 0,-0.03095 -0.785614,-2.614744 -0.808627,-2.65442 -0.0127,-0.02222 -0.09126,0.04365 -0.209497,0.17458 l -0.191245,0.209497 0.280916,1.031614 0.278535,1.031614 0.307898,0.109504 c 0.330116,0.116652 0.348368,0.122207 0.348368,0.09126 z m -12.36746,-1.298246 0.348368,-0.646742 -0.103959,-0.151568 c -0.05793,-0.08411 -0.115064,-0.146013 -0.123793,-0.133316 -0.0087,0.0127 -0.258697,0.433278 -0.555485,0.937974 -0.296786,0.504698 -0.5412,0.930833 -0.549928,0.941943 -0.0087,0.01107 0.130934,-0.04761 0.311863,-0.13649 l 0.317421,-0.164265 0.349955,-0.648329 z m 5.387403,-0.130935 c 0.192833,-0.555485 0.351543,-1.023678 0.351543,-1.038756 a 1.5997946,1.5997946 0 0 0 -0.361066,-0.13649 q -0.184896,-0.05475 -0.366619,-0.12062 a 1.0387555,1.0387555 0 0 1 0.115065,-0.200767 l 0.123793,-0.189659 0.738001,-0.0365 c 1.286343,-0.06031 2.029898,-0.282504 2.751234,-0.822116 0.27298,-0.200769 0.389632,-0.233304 0.539613,-0.158711 0.127762,0.07301 0.21902,0.233303 0.192833,0.348368 -0.01825,0.07936 -0.05079,0.102366 -0.438833,0.358684 -0.36662,0.238065 -1.595826,0.780059 -2.029898,0.896711 -0.247588,0.06348 -0.526916,0.219019 -0.588814,0.330116 -0.0619,0.111097 -0.289645,1.675975 -0.238064,1.725175 0.01107,0.01107 2.091795,-0.07301 2.423498,-0.102365 0.200768,-0.01429 0.213465,-0.01826 0.293613,-0.122207 0.04365,-0.05793 0.238065,-0.278536 0.433278,-0.486446 0.195213,-0.207909 0.548343,-0.607064 0.785614,-0.888774 0.23727,-0.281709 0.597541,-0.694355 0.793548,-0.914962 0.311865,-0.344401 0.47613,-0.57929 1.127633,-1.561705 1.599795,-2.412388 1.706924,-2.625852 1.825163,-3.587633 0.07935,-0.683247 0.122206,-0.814181 0.389633,-1.269679 0.267426,-0.455497 0.535644,-1.758505 0.388045,-1.882298 -0.130936,-0.109505 -0.278536,-0.05793 -0.777678,0.272981 -0.933213,0.621348 -1.893408,1.532343 -2.029898,1.918801 -0.0619,0.172993 -0.406297,0.679278 -0.518981,0.761807 l -0.945911,0.672136 c -1.060181,0.754665 -0.947497,0.634839 -1.546627,1.601382 l -0.200767,0.317419 -0.595956,0.31742 -0.597541,0.311865 -1.122079,0.02698 c -2.240982,0.05079 -2.346524,0.04047 -3.540022,-0.376936 l -0.785613,-0.278536 -0.626904,-0.555484 c -0.348368,-0.30631 -0.965749,-0.85624 -1.373633,-1.224446 L 14.293577,31.35373 14.034879,30.768884 Q 13.558751,29.730128 13.12944,28.673915 c -0.153155,-0.411853 -0.164265,-0.420581 -0.500729,-0.780059 -0.621349,-0.657852 -0.964162,-1.379188 -1.379188,-2.936132 -0.07935,-0.300755 -0.142046,-0.472161 -0.182516,-0.511839 -0.04047,-0.03967 -0.05079,-0.04047 -0.04206,-0.02222 a 0.28329697,0.28329697 0 0 1 -0.02222,0.149188 c -0.285678,0.803864 -0.380903,1.399026 -0.45391,2.840905 -0.03651,0.653884 -0.03651,0.6396 0.17458,1.791039 0.410264,2.233841 0.539613,2.732983 0.745143,2.851222 a 4.2058092,4.2058092 0 0 1 0.53009,0.521362 c 0.621349,0.684832 0.816562,0.884013 1.100652,1.110967 0.518982,0.420581 1.339512,1.293486 1.641854,1.751363 a 3.5709701,3.5709701 0 0 0 0.246,0.322181 c 0.27298,0.296787 0.841955,1.09351 1.637884,2.29415 l 0.572149,0.865762 0.238065,-0.0127 c 0.164265,-0.01107 0.59913,0.02222 1.349033,0.0984 0.611826,0.06349 1.156995,0.116652 1.211749,0.118239 h 0.102366 l 0.348368,-1.010981 z m -4.147086,0.829259 a 1.9259432,1.9259432 0 0 0 -0.222194,-0.36662 c -0.136491,-0.195213 -0.25473,-0.355509 -0.272981,-0.348368 a 6.6610495,6.6610495 0 0 0 -0.330116,0.681658 c -0.01825,0.05635 0.621349,0.07936 0.825291,0.03253 z m 5.04221,-5.026339 c 0.08411,-0.06031 0.231716,-0.09999 0.684832,-0.191246 0.566594,-0.109504 0.683246,-0.151568 1.144297,-0.384077 a 0.57373587,0.57373587 0 0 0 0.16744,-0.200768 1.3355428,1.3355428 0 0 1 0.200767,-0.251555 0.22854209,0.22854209 0 0 0 0.09999,-0.178548 c 0,-0.142046 0.413439,-0.50073 1.983872,-1.723589 a 1.6577236,1.6577236 0 0 0 0.446768,-0.488032 3.1956215,3.1956215 0 0 1 0.47613,-0.562627 c 0.158709,-0.146013 0.530091,-0.517393 0.8364,-0.822117 0.306311,-0.304722 0.714195,-0.684832 0.90544,-0.841955 q 0.228542,-0.175374 0.438832,-0.37138 c 0.05475,-0.05793 0.285678,-0.192833 0.610239,-0.357097 a 4.1328028,4.1328028 0 0 0 0.548343,-0.306311 c 0.03253,-0.05475 0.164264,-0.109504 0.925278,-0.396774 1.619633,-0.603097 2.698066,-0.896711 3.261486,-0.896711 0.146012,0 0.17458,-0.09444 0.122206,-0.396774 -0.123794,-0.719749 -0.539613,-1.005426 -1.472033,-1.005426 h -0.330122 l -0.115065,-0.122207 c -0.109516,-0.118238 -0.122206,-0.15871 -0.226161,-0.591988 -0.209496,-0.884012 -0.337258,-0.968922 -1.349033,-0.940354 -0.793549,0.0238 -1.005426,0.109505 -3.195622,1.308562 -1.096684,0.603097 -1.885471,1.2792 -2.811543,2.423498 a 1.7965948,1.7965948 0 0 1 -0.200769,0.223781 c -0.566593,0 -0.555483,-0.860207 0.03095,-1.729143 l 0.192832,-0.285678 -0.153156,-0.06348 c -0.430103,-0.195213 -0.968922,-0.223781 -1.349032,-0.07301 -0.524536,0.21029 -1.859285,0.956226 -2.032279,1.1316 -0.172994,0.175375 -0.340432,0.192833 -0.340432,0.0127 0,-0.222194 0.20791,-0.51898 0.526916,-0.74911 0.07301,-0.05793 0.200768,-0.15871 0.278535,-0.231716 a 2.9678729,2.9678729 0 0 1 0.793549,-0.47613 c 0.26822,-0.109505 0.258697,-0.09444 0.164265,-0.27298 -0.254729,-0.464227 -0.956227,-0.995111 -1.666453,-1.255395 -0.09126,-0.03651 -0.307896,-0.127761 -0.476128,-0.203942 -0.40233,-0.185691 -0.603098,-0.226161 -1.224447,-0.247588 -0.444388,-0.01825 -0.515806,-0.02539 -0.486445,-0.06031 0.134903,-0.164265 0.566593,-0.242033 1.439497,-0.262664 l 0.69991,-0.01825 0.449943,0.201562 c 1.269677,0.548342 1.754537,0.841955 1.956891,1.175246 0.138871,0.233303 0.153155,0.242032 0.35313,0.203941 0.484858,-0.09126 0.94353,0.05793 1.393471,0.453911 0.246001,0.219019 0.334878,0.238065 0.499143,0.115064 a 1.4085493,1.4085493 0 0 0 0.497555,-0.914962 c 0.06348,-0.493587 -0.109505,-2.069575 -0.278536,-2.523486 -0.127761,-0.342812 -0.103958,-0.357096 0.15871,-0.08411 0.311865,0.324562 0.311865,0.324562 0.594368,-0.200768 a 3.3662344,3.3662344 0 0 1 0.251555,-0.402329 c 0.53009,-0.668961 0.511839,-1.904518 -0.03095,-2.454447 -0.272982,-0.27298 -0.736414,-0.53009 -1.484731,-0.812594 -0.734032,-0.282503 -0.856239,-0.384078 -1.402995,-1.144297 -0.657851,-0.922104 -0.774503,-1.031614 -1.318877,-1.290311 -1.124459,-0.534058 -3.82808,-1.023678 -4.681939,-0.850684 -0.803865,0.164264 -1.894995,0.814181 -2.405247,1.43791 -0.317419,0.388046 -1.148265,0.687214 -2.321131,0.841956 -1.530755,0.1968 -2.284627,1.507742 -1.896581,3.290847 0.07301,0.348368 0.06904,0.3444 0.300755,0.0619 0.738,-0.920518 2.202892,-1.778344 3.516215,-2.05926 1.047485,-0.219019 2.68775,-0.229336 3.662228,-0.01826 l 0.174581,0.04047 h -0.262665 c -1.366491,0.01825 -3.469396,0.468194 -4.95968,1.06415 l -0.31742,0.127762 -0.02936,0.158709 c -0.02699,0.151567 -0.04047,0.169819 -0.511839,0.639601 -0.979239,0.977652 -1.26333,1.449813 -1.418072,2.342555 -0.07301,0.435658 0.06587,1.072879 0.272981,1.235556 0.04919,0.04047 0.0857,0.09126 0.07935,0.109516 q -0.03174,0.203941 -0.04761,0.410264 c -0.138871,1.539485 0.588813,3.399564 1.745807,4.469267 l 0.262665,0.242034 0.1968,-0.164265 c 0.577704,-0.472162 1.564879,-1.118904 1.618047,-1.060182 0.07936,0.09126 0.0619,0.164265 -0.06031,0.282504 -0.15871,0.149187 -0.357097,0.411851 -0.903853,1.169691 l -0.472161,0.657851 0.0127,0.189659 a 2.1917821,2.1917821 0 0 0 0.26822,0.822117 c 0.05475,0.08411 0.164264,0.272981 0.247586,0.417407 a 9.7606516,9.7606516 0 0 0 0.772918,1.16969 6.7784947,6.7784947 0 0 1 0.517393,0.730859 c 0.05079,0.08411 0.09126,0.116652 0.127762,0.109505 0.07301,-0.01825 0.164265,0.04761 0.508664,0.371382 0.338846,0.311864 0.151569,0.222193 1.539485,0.743554 1.499808,0.562626 2.063227,0.672137 2.669499,0.521362 0.164264,-0.04047 0.176961,-0.04047 0.30631,0.02698 0.164264,0.0857 0.164264,0.0857 0.296787,0 v 0.0087 z M 9.7743155,26.963023 c 0.00556,-0.0055 0.036503,-0.187278 0.067451,-0.410264 A 4.7224096,4.7224096 0 0 1 9.98778,25.883796 l 0.351542,-1.173658 c 0.322181,-1.096685 0.289646,-1.002253 0.324562,-0.947498 0.04523,0.07935 0.02699,-0.01825 -0.02936,-0.134903 a 3.2321247,3.2321247 0 0 1 -0.120619,-0.311865 l -0.0619,-0.1968 0.0619,-1.071291 0.0619,-1.072879 -0.09999,-0.723716 q -0.04602,-0.371381 -0.116652,-0.739587 c -0.05793,-0.05793 -0.8451293,0.264252 -1.0911294,0.446768 -0.3174197,0.238065 -0.7308586,1.237142 -0.8967103,2.175117 -0.2190195,1.264124 -0.014284,3.001202 0.4118519,3.491616 0.1277613,0.146013 0.4118518,0.6888 0.65071,1.238729 l 0.061897,0.140459 0.1364905,-0.01825 a 0.62690363,0.62690363 0 0 0 0.1420453,-0.0238 z M 36.694668,24.576028 c 0.229337,-0.15871 0.433278,-0.322182 0.448355,-0.357098 0.02698,-0.06745 0.388046,-2.002123 0.511839,-2.745679 l 0.07936,-0.468194 -0.07936,-0.814181 -0.07935,-0.812594 -0.227749,-0.872903 c -0.226161,-0.865763 -0.233303,-0.881634 -0.48089,-1.376015 -0.396775,-0.785613 -0.35313,-0.430103 -0.690388,-6.118262 l -0.06348,-1.0530397 -0.09682,-0.099982 C 35.888415,9.7215891 35.401969,9.0232667 34.26164,7.32904 Q 33.785511,6.6005614 33.266529,5.9062062 32.522181,5.7538451 31.77069,5.6403675 c -0.719749,-0.099982 -1.341097,-0.04523 -1.921976,0.1714064 -0.233303,0.087285 -0.254729,0.091261 -0.36662,0.054752 -0.251554,-0.085704 -0.534058,-0.00554 -1.036375,0.2991679 L 28.181468,6.3244037 27.879126,5.9220739 C 27.530766,5.4649894 27.526004,5.4578469 26.840379,5.0071108 25.674655,4.2492719 25.535784,4.1889622 23.866951,3.746162 23.223382,3.5747555 23.300357,3.6334781 22.057659,2.3971289 l -0.974478,-0.9697168 -1.065737,0.014284 c -1.802148,0.026981 -2.698065,0.1095091 -2.915497,0.2586968 -1.297454,0.925278 -1.993396,1.6180462 -2.802022,2.7893245 L 14.112648,4.7626981 13.409563,5.0975759 C 12.640615,5.4673695 11.525678,5.8117694 11.220955,5.7697116 11.053516,5.7474921 10.453593,5.4419758 10.021902,5.1483633 9.2235925,4.6182722 8.6728696,4.5539947 8.0380304,4.9222014 7.5206368,5.218989 7.157985,5.4126149 5.6946808,6.1522021 4.1258347,6.9457509 3.9361765,7.0560542 3.4243374,7.4369576 L 3.1251695,7.6607385 2.8648855,8.1852744 C 2.2982914,9.3256043 2.3094012,9.2819583 2.2800398,10.763516 c -0.054755,2.769485 -0.063484,3.65826 -0.029361,3.86617 a 3.1987957,3.1987957 0 0 1 0.029361,0.920516 c -0.050787,0.311865 -0.7054649,2.527453 -1.0657361,3.601919 a 7.7283729,7.7283729 0 0 0 -0.28964534,1.341097 c -0.0182512,0.127762 0,0.31742 0.0658644,0.714195 0.0476132,0.299168 0.12776134,0.822117 0.17696134,1.165723 0.1206194,0.84513 0.2190194,1.023679 0.6522972,1.165723 0.3809034,0.127761 0.5626261,0.115065 1.3339556,-0.07936 1.4450526,-0.369794 1.4815558,-0.358685 2.0632273,0.688799 0.1420452,0.249969 0.203942,0.334879 0.260284,0.351543 0.1912453,0.05475 1.3212589,0.01825 1.5775752,-0.0492 l 0.3531293,-0.09126 0.1023678,-0.02698 -0.036504,-0.17458 a 4.4002287,4.4002287 0 0 1 -0.042058,-1.137156 10.989859,10.989859 0 0 1 0.2785356,-1.619633 c 0.00714,-0.03095 -0.011104,-0.0071 -0.040471,0.05475 L 7.6150681,21.565298 7.5515841,21.27962 A 3.4305119,3.4305119 0 0 0 7.0214946,20.055179 11.65406,11.65406 0 0 1 6.2541328,18.468081 L 6.0843133,18.0475 6.1025645,17.753888 c 0.091258,-1.308562 0.4078841,-2.160834 1.0879556,-2.905976 0.4134389,-0.45153 0.5340583,-0.639601 0.5919875,-0.952259 0.045232,-0.238065 0.192832,-1.470446 0.3118643,-2.539357 L 8.1983268,10.359598 8.6458884,9.0486559 C 8.8839532,8.3344613 9.0664694,7.7329512 9.0561532,7.7218415 Q 8.437979,7.4044224 7.7936177,7.1369967 C 7.5674562,7.0735124 7.0429204,7.0949412 6.6421783,7.1861913 5.3574225,7.4798038 4.4123057,8.1551137 4.3646929,8.8129655 4.351996,8.9589793 3.7052537,10.320709 3.644944,10.320709 3.60844,10.320709 3.5100407,10.14216 3.4751246,10.012811 3.4402082,9.8834638 3.4529051,9.8033144 3.6084407,9.3732118 3.6663696,9.2145012 3.7854021,8.8177268 3.8726925,8.4860237 4.091712,7.6789851 4.1274217,7.6131196 4.610693,7.3948941 L 5.4613775,6.9925711 C 6.6913782,6.4005826 8.476863,5.9395309 8.9212504,6.0998276 9.1815344,6.1910886 9.5751347,6.51168 9.9266769,6.9124216 L 10.094116,7.1020803 9.9298511,7.5504351 C 9.0950376,9.8572816 8.8839536,10.496882 8.8252309,10.872232 c -0.1293484,0.834813 -0.1206194,2.669499 0.014284,3.088491 0.105542,0.342814 0.098401,0.355511 -0.4062971,0.687214 -0.8729036,0.576117 -1.7362847,1.674389 -1.7727879,2.246538 -0.023807,0.384077 0.1642646,1.155407 0.4023292,1.618045 0.094432,0.191246 1.0728778,1.666453 1.1038263,1.666453 a 0.66023269,0.66023269 0 0 0 0.1039549,-0.164265 3.4765378,3.4765378 0 0 1 1.282375,-1.408548 c 0.5761157,-0.371382 0.5777027,-0.371382 0.6213487,-0.570562 0.293613,-1.321259 0.774504,-2.084653 1.603762,-2.523486 l 0.358685,-0.191245 -0.172995,-0.06348 C 11.699465,15.16057 11.47013,14.997098 11.183659,14.696343 9.9139801,13.3608 9.4235668,11.839567 9.9298511,10.82065 a 2.9424793,2.9424793 0 0 0 0.1309359,-0.334877 c 0.446768,-1.3760141 1.696607,-2.1211567 3.355918,-2.006092 1.63233,0.1150646 2.357634,0.5396128 2.948034,1.712479 0.566594,1.137155 0.535646,2.170356 -0.09998,3.190067 l -0.120619,0.192832 0.109505,-0.10554 c 0.123794,-0.115065 1.395853,-0.681658 1.723589,-0.767361 0.488032,-0.127762 1.200639,-0.05475 3.451143,0.351541 0.909408,0.164265 1.06415,0.22775 1.499808,0.62135 0.09126,0.08728 0.164265,0.138871 0.164265,0.116652 0,-0.02222 -0.01825,-0.189659 -0.04523,-0.37535 -0.151567,-1.124458 0.0619,-2.552847 0.490413,-3.253551 0.517394,-0.8490973 2.505234,-1.6085228 3.596364,-1.3736332 0.548342,0.1182388 1.401407,0.6467431 1.860078,1.1569951 0.05793,0.065868 0.109516,0.1023651 0.109516,0.079355 0,-0.02301 -0.03651,-0.5919875 -0.07301,-1.2696775 q -0.04682,-0.6269037 -0.05475,-1.2553946 c 0.01428,-0.01107 0.262665,-0.1531552 0.555484,-0.3174191 l 0.534059,-0.2936136 0.09443,0.073007 c 0.07936,0.057927 0.307897,0.1150647 1.421246,0.3483671 l 1.390299,0.2991691 c 0.04919,0.01107 0.158709,0.1642638 0.396774,0.5554828 0.176961,0.299169 0.493587,0.8165624 0.707052,1.1514396 0.774503,1.2387312 0.914962,1.5593242 0.74911,1.7148602 -0.165852,0.155536 -0.1968,0.15871 -0.307898,-0.0127 C 34.461637,10.939678 34.149768,10.446889 33.826,9.93505 Q 33.51731,9.4374949 33.1864,8.9526367 C 33.1499,8.9161277 31.368379,8.3225587 30.477223,8.0471974 30.041565,7.9138816 29.580514,10.144547 29.683675,11.87131 c 0.0365,0.580877 0.0365,0.584846 0.530091,1.038756 0.307896,0.28409 1.563291,2.051323 1.809291,2.545704 l 0.122206,0.247588 -0.01107,1.507742 -0.0087,1.502982 -0.191246,0.322181 c -0.803864,1.349033 -1.264123,1.860078 -1.795007,1.99657 -0.293614,0.07301 -0.617381,0.317419 -0.5904,0.438832 0.0087,0.04047 0.0238,0.280917 0.03651,0.53009 0.01107,0.303929 0.02936,0.461053 0.04919,0.461053 0.01984,0 0.133317,-0.01825 0.254731,-0.04206 0.829258,-0.158709 1.745807,-0.103958 2.301291,0.133317 0.200768,0.0857 0.211084,0.116652 0.233303,0.626904 0.03095,0.683245 0.07935,0.741174 0.643569,0.832432 0.634838,0.09998 0.853065,0.20791 1.269677,0.626904 l 0.233304,0.238065 1.683911,0.0071 0.446768,-0.306309 z M 15.47041,7.4742551 Q 14.726854,6.9981254 13.952351,6.5743702 C 13.336557,6.2625054 13.31275,6.2077508 13.738886,6.0117437 c 0.621349,-0.2856769 0.863381,-0.2007673 1.65455,0.5737362 0.306309,0.300755 0.672136,0.6348393 0.816561,0.7491098 0.284091,0.2150524 0.597543,0.5007294 0.597543,0.5412011 0,0.040474 -0.209497,0.254729 -0.25473,0.254729 Q 15.999707,7.8242093 15.47041,7.4742551 Z m 7.264146,0.345987 A 0.94194255,0.94194255 0 0 1 22.30604,7.4718739 L 22.22668,7.3441124 22.28143,7.2203192 c 0.07301,-0.1729935 0.13887,-0.2380649 0.420581,-0.420581 0.134903,-0.091261 0.289645,-0.2007684 0.342813,-0.2444133 0.289645,-0.2547289 2.148137,-1.0165356 2.474285,-1.0165356 0.182516,0 0.238065,0.036509 0.317419,0.2277481 a 1.1554072,1.1554072 0 0 0 0.118239,0.2190196 c 0.09126,0.1023656 -0.109504,0.209497 -0.621348,0.3261487 -0.272981,0.061903 -0.914962,0.3174191 -1.490285,0.5975417 L 23.373359,7.1369967 23.103554,7.503616 c -0.146011,0.2007685 -0.272978,0.3666194 -0.272978,0.3666194 l -0.103959,-0.04523 z M 26.83403,23.506324 c 0.213464,-0.187278 1.114936,-0.608653 1.636298,-0.761807 0.189658,-0.05475 0.311865,-0.555485 0.311865,-1.311736 v -0.426137 l -0.167439,-0.348367 c -0.176962,-0.36662 -0.369794,-0.688801 -0.40233,-0.676104 -0.01107,0 -0.369794,0.457085 -0.793549,1.013362 l -0.780058,1.007807 0.01825,0.45391 0.01825,0.808627 c 0,0.410264 -0.01107,0.396774 0.164265,0.244412 z m 2.986125,-3.27815 0.626903,-0.238065 0.203942,-0.307898 c 0.714194,-1.078433 0.933213,-1.641852 0.964162,-2.512375 l 0.01825,-0.561039 -0.41582,-0.657852 C 30.514514,14.844737 30.059016,14.09642 29.901894,13.788524 a 0.64832946,0.64832946 0 0 0 -0.112679,-0.182516 c -0.112679,-0.07301 -0.446768,0.219019 -0.834814,0.730859 -0.27298,0.366619 -0.411851,0.462638 -1.228413,0.872903 -1.078433,0.537232 -1.595827,0.621349 -2.353666,0.388045 q -0.496762,-0.16347 -1.005427,-0.284091 c -0.07935,0 0.242033,0.37535 0.535646,0.63484 0.229336,0.200768 0.402329,0.293613 0.630078,0.330117 0.348368,0.05475 0.996697,0.42058 1.993394,1.114936 0.555485,0.389632 0.47613,0.242032 0.530092,1.002252 l 0.04919,0.6396 0.146014,0.142046 c 0.182516,0.178548 0.389632,0.457084 0.694355,0.929246 0.127762,0.203941 0.238065,0.37376 0.238065,0.37376 l 0.634839,-0.244412 z m -3.129757,-5.684192 c 0.812594,-0.299168 1.282375,-1.211748 0.960193,-1.864046 -0.353129,-0.714194 -1.155406,-1.279201 -1.818019,-1.279201 -0.774505,0 -1.783899,0.878459 -1.783899,1.554563 0,0.01428 0.10554,-0.06904 0.231716,-0.189659 0.59913,-0.566594 1.26095,-0.630078 1.913247,-0.191245 0.701497,0.46978 0.854652,1.402995 0.31742,1.93864 -0.142046,0.146013 -0.122208,0.146013 0.182516,0.0365 z M 12.653311,14.254337 a 1.7545367,1.7545367 0 0 1 -0.04761,-0.721336 c 0.264252,-1.417278 1.983872,-1.831511 2.751234,-0.663407 l 0.116652,0.182516 -0.01666,-0.238064 c -0.12538,-1.768821 -1.993394,-2.248125 -3.144834,-0.80704 -0.648329,0.814182 -0.545168,2.059259 0.191246,2.321131 0.187277,0.06587 0.195213,0.06189 0.146013,-0.07935 z m 16.143166,-0.960194 c 0.476128,-0.799897 0.411851,-1.918802 -0.158711,-2.787738 -0.767361,-1.169691 -1.975142,-1.5323431 -3.290847,-0.9871748 -1.018123,0.420581 -1.414104,0.9419428 -1.502982,1.9695888 -0.04047,0.457084 -0.02222,0.511839 0.10554,0.31742 0.433278,-0.645156 1.173659,-0.996699 1.993396,-0.95226 1.297452,0.06904 2.259233,0.982414 2.523485,2.398105 l 0.06189,0.333292 0.01429,0.07301 0.07301,-0.09126 a 2.8424922,2.8424922 0 0 0 0.182517,-0.280916 z m -2.607603,0.164264 a 0.24441307,0.24441307 0 0 0 0,-0.348367 0.23806467,0.23806467 0 0 0 -0.17458,-0.07301 0.23330338,0.23330338 0 0 0 -0.176961,0.07301 0.23806467,0.23806467 0 0 0 -0.06904,0.174581 0.24838081,0.24838081 0 0 0 0.424549,0.178547 v -0.0055 z M 11.215401,13.077504 c 0.251554,-1.408549 1.333956,-2.348905 2.698065,-2.348905 0.884014,0 1.526789,0.499142 1.90055,1.474415 0.0984,0.254728 0.109504,0.260283 0.15871,0.06348 0.127762,-0.499143 -0.01825,-1.54504 -0.296787,-2.093382 C 15.199809,9.229582 13.795227,8.7534523 12.485872,9.0962651 11.72962,9.289098 10.8464,10.261989 10.669438,11.095216 c -0.182516,0.853065 -0.06904,1.546627 0.348369,2.125917 0.140458,0.1968 0.140458,0.1968 0.200768,-0.146012 z m 3.513041,0 a 0.23806467,0.23806467 0 0 0 0.07301,-0.174581 0.23330338,0.23330338 0 0 0 -0.07301,-0.176961 0.22378079,0.22378079 0 0 0 -0.174581,-0.07459 0.22695498,0.22695498 0 0 0 -0.174581,0.07301 0.22933563,0.22933563 0 0 0 -0.07301,0.176961 0.24758726,0.24758726 0 0 0 0.422962,0.17458 z"
     style="fill:#000000;stroke-width:0.0793549"
     id="path4" />
</svg>
