<?xml version="1.0" encoding="UTF-8" standalone="no"?>
<svg
   id="Logo_Ogoxe_goute_white"
   data-name="Logo Ogoxe goute white"
   width="55"
   height="55"
   viewBox="0 0 55 55"
   version="1.1"
   xmlns="http://www.w3.org/2000/svg"
   xmlns:svg="http://www.w3.org/2000/svg">
  <defs
     id="defs8" />
  <g
     id="Logo_Ogoxe_goute_white-2"
     data-name="Logo Ogoxe goute white">
    <path
       id="Path_2060"
       data-name="Path 2060"
       d="M854.764,612.425a27.731,27.731,0,0,0-14.2-15.125,25.965,25.965,0,0,0-11.194-2.368,26.969,26.969,0,0,0-11.073,2.253,27.974,27.974,0,0,0-8.761,6.035,27.554,27.554,0,0,0-5.76,8.746,26.571,26.571,0,0,0-2.068,10.313,27.285,27.285,0,0,0,1.987,10.236,27.844,27.844,0,0,0,14.237,15.048,25.93,25.93,0,0,0,11.194,2.369A26.565,26.565,0,0,0,840.2,647.64a27.654,27.654,0,0,0,14.44-14.82,26.556,26.556,0,0,0,2.069-10.312,27.417,27.417,0,0,0-1.947-10.083"
       transform="translate(-801.711 -594.932)"
       fill="#fff"
       style="mix-blend-mode: normal;isolation: isolate" />
    <path
       id="Path_2061"
       data-name="Path 2061"
       d="M852.165,612.913a25.208,25.208,0,0,0-12.906-13.75,23.6,23.6,0,0,0-10.177-2.153,24.518,24.518,0,0,0-10.066,2.048,25.441,25.441,0,0,0-7.964,5.486,25.064,25.064,0,0,0-5.236,7.952,24.147,24.147,0,0,0-1.88,9.375,24.808,24.808,0,0,0,1.807,9.306,25.315,25.315,0,0,0,12.942,13.68,23.585,23.585,0,0,0,10.177,2.153,24.162,24.162,0,0,0,10.066-2.083,25.152,25.152,0,0,0,13.128-13.472,24.159,24.159,0,0,0,1.88-9.375,24.927,24.927,0,0,0-1.77-9.166M828.516,638.5c-6.7,0-12.139-5.118-12.139-11.43,0-.116,0-.229.006-.344.25-10.794,12.133-22.649,12.133-22.649s11.872,12.121,12.131,22.642c0,.117.007.233.007.351,0,6.312-5.435,11.43-12.138,11.43"
       transform="translate(-801.436 -594.51)"
       fill="#096dfe"
       style="fill:#4a97d2;fill-opacity:1" />
  </g>
</svg>
